HIERARCHY
ROOT Hips
{
	OFFSET 0.00 0.00 0.00
	CHANNELS 6 Xposition Yposition Zposition Xrotation Yrotation Zrotation
	JOINT Spine
	{
		OFFSET 0.00000 7.06766 0.00000
		CHANNELS 3 Xrotation Yrotation Zrotation
		JOINT Head
		{
			OFFSET 0.00000 15.03989 0.00000
			CHANNELS 3 Xrotation Yrotation Zrotation
			End Site
			{
				OFFSET 0.00000 4.52755 0.00000
			}
		}
		JOINT LeftShoulder
		{
			OFFSET 0.00000 10.53037 0.00000
			CHANNELS 3 Xrotation Yrotation Zrotation
			JOINT LeftArm
			{
				OFFSET 7.02886 0.00000 0.00000
				CHANNELS 3 Xrotation Yrotation Zrotation
				JOINT LeftForeArm
				{
					OFFSET 10.79770 0.00000 0.00000
					CHANNELS 3 Yrotation Zrotation Xrotation
					JOINT LeftHand
					{
						OFFSET 7.90744 0.00000 0.00000
						CHANNELS 3 Xrotation Yrotation Zrotation
						JOINT LeftHandThumb1
						{
							OFFSET 0.00000 0.00000 0.00000
							CHANNELS 3 Xrotation Zrotation Yrotation
							End Site
							{
								OFFSET 0.00000 0.00000 3.93700
							}
						}
						End Site
						{
							OFFSET 3.93700 0.00000 0.00000
						}
					}
				}
			}
		}
		JOINT RightShoulder
		{
			OFFSET 0.00000 10.53037 0.00000
			CHANNELS 3 Xrotation Yrotation Zrotation
			JOINT RightArm
			{
				OFFSET -7.02886 0.00000 0.00000
				CHANNELS 3 Xrotation Yrotation Zrotation
				JOINT RightForeArm
				{
					OFFSET -10.79770 0.00000 0.00000
					CHANNELS 3 Yrotation Zrotation Xrotation
					JOINT RightHand
					{
						OFFSET -7.90744 0.00000 0.00000
						CHANNELS 3 Xrotation Yrotation Zrotation
						JOINT RightHandThumb1
						{
							OFFSET 0.00000 0.00000 0.00000
							CHANNELS 3 Xrotation Zrotation Yrotation
							End Site
							{
								OFFSET 0.00000 0.00000 3.93700
							}
						}
						End Site
						{
							OFFSET -3.93700 0.00000 0.00000
						}
					}
				}
			}
		}
	}
	JOINT LeftUpLeg
	{
		OFFSET 4.01300 0.00000 0.00000
		CHANNELS 3 Xrotation Yrotation Zrotation
		JOINT LeftLeg
		{
			OFFSET 0.00000 -16.89976 0.00000
			CHANNELS 3 Xrotation Yrotation Zrotation
			JOINT LeftFoot
			{
				OFFSET 0.00000 -17.38918 0.00000
				CHANNELS 3 Xrotation Yrotation Zrotation
				JOINT LeftToeBase
				{
					OFFSET 0.00000 -1.27456 4.75673
					CHANNELS 3 Xrotation Yrotation Zrotation
					End Site
					{
						OFFSET 0.00000 0.00000 2.95275
					}
				}
			}
		}
	}
	JOINT RightUpLeg
	{
		OFFSET -4.01300 0.00000 0.00000
		CHANNELS 3 Xrotation Yrotation Zrotation
		JOINT RightLeg
		{
			OFFSET 0.00000 -16.89976 0.00000
			CHANNELS 3 Xrotation Yrotation Zrotation
			JOINT RightFoot
			{
				OFFSET 0.00000 -17.38918 0.00000
				CHANNELS 3 Xrotation Yrotation Zrotation
				JOINT RightToeBase
				{
					OFFSET 0.00000 -1.27456 4.75673
					CHANNELS 3 Xrotation Yrotation Zrotation
					End Site
					{
						OFFSET 0.00000 0.00000 2.95275
					}
				}
			}
		}
	}
}
MOTION
Frames: 13
Frame Time: 0.008333
 19.0382 35.3726 -21.6266 172.8935 -1.7720 177.7686 -17.5162 -4.0360 1.1005 9.9379 0.4553 0.4665 -15.9193 18.4594 0.0438 36.6317 -10.6561 -74.0593 1.1999 0.0000 15.2465 1.6844 4.1029 -22.3434 33.1476 -0.0000 26.2537 21.4587 -15.3296 10.6109 7.0607 24.9889 69.4284 10.0430 -0.0000 28.8307 -2.2852 5.4621 22.7443 32.8623 0.0000 -24.3270 1.1812 9.0436 3.3495 -6.2889 -0.0000 -0.0000 -20.5061 28.9534 7.9458 28.1298 0.0000 -0.0000 0.0680 -12.2727 0.6722 -2.9390 -0.0000 -0.0000 -18.0186 -26.3028 0.3990 25.7791 0.0000 0.0000
 19.0397 35.3711 -21.6202 172.9525 -1.7991 177.7496 -17.5480 -4.1240 1.1214 10.1012 0.5066 0.4485 -16.1492 18.2851 -0.1042 36.2702 -10.4534 -73.2134 1.2516 0.0000 15.8535 1.6727 4.1132 -22.1523 33.1476 -0.0000 26.2537 21.2512 -15.0878 10.5998 6.5484 24.2166 68.7768 10.0328 -0.0000 28.9917 -2.1814 5.2778 22.4939 32.8623 0.0000 -24.3270 1.2454 9.0061 3.3698 -6.3303 0.0000 0.0000 -20.5185 28.9573 8.0108 28.2538 -0.0000 0.0000 0.1265 -12.2724 0.6974 -2.9394 0.0000 0.0000 -18.0268 -26.3256 0.3792 25.7692 0.0000 -0.0000
 19.0374 35.3698 -21.6144 173.0223 -1.8083 177.7558 -17.5598 -4.1714 1.1222 10.2437 0.5584 0.4594 -16.4149 18.0680 -0.2405 35.7770 -9.9622 -72.3818 1.4074 0.0000 16.6733 1.6528 4.1359 -21.8050 33.1476 -0.0000 26.2537 20.9572 -14.8503 10.5910 6.1301 23.5066 68.0604 10.0564 -0.0000 29.2980 -2.1160 5.1567 22.3465 32.8623 0.0000 -24.3270 1.3152 9.0191 3.3594 -6.3489 0.0000 0.0000 -20.5177 28.9370 8.0078 28.2620 -0.0000 0.0000 0.1851 -12.2299 0.6870 -2.9345 0.0000 -0.0000 -18.0456 -26.3564 0.3390 25.7182 -0.0000 0.0000
 19.0351 35.3692 -21.6057 173.0813 -1.8458 177.7599 -17.5770 -4.2511 1.1283 10.3872 0.6967 0.4534 -16.6581 17.8613 -0.4058 35.5401 -10.1488 -71.4847 1.3750 0.0000 16.6395 1.6411 4.2130 -21.3053 33.1476 -0.0000 26.2537 20.6440 -14.5852 10.5703 5.6675 22.8209 67.3474 10.0094 -0.0000 29.5831 -2.0672 5.0572 22.2676 32.8623 0.0000 -24.3270 1.3632 8.9668 3.3562 -6.3544 0.0000 0.0000 -20.5020 28.9258 8.0455 28.2342 -0.0000 -0.0000 0.2238 -12.2573 0.6797 -2.9153 0.0000 0.0000 -18.0661 -26.3491 0.2867 25.7090 0.0000 0.0000
 19.0317 35.3682 -21.5906 173.1716 -1.8551 177.7598 -17.5081 -4.2694 1.1510 10.4564 0.7566 0.4611 -17.0096 17.5540 -0.6033 35.2831 -10.1096 -70.5996 1.4277 0.0000 16.8050 1.6425 4.2955 -20.9492 33.1476 -0.0000 26.2537 20.2929 -14.3128 10.5778 5.2204 22.2692 66.5795 9.9450 -0.0000 29.8476 -2.0360 4.9946 22.2117 32.8623 0.0000 -24.3270 1.4183 8.9568 3.3555 -6.3332 0.0000 -0.0000 -20.5294 28.9079 8.0927 28.2469 0.0000 -0.0000 0.2660 -12.1873 0.6718 -2.8686 0.0000 -0.0000 -18.0708 -26.4474 0.3150 25.5918 -0.0000 0.0000
 19.0237 35.3685 -21.5642 173.2723 -1.7570 177.7493 -17.3903 -4.1962 1.2497 10.5131 0.7314 0.3957 -17.2594 17.3088 -0.8225 34.8264 -10.1293 -69.6987 1.4394 0.0000 16.8130 1.6479 4.4300 -20.4283 33.1476 -0.0000 26.2537 19.7515 -13.9701 10.5436 4.8596 21.5877 65.7648 9.8699 -0.0000 30.0657 -2.0468 5.0010 22.2917 32.8623 0.0000 -24.3270 1.4730 9.0330 3.3547 -6.3090 0.0000 0.0000 -20.5811 28.9057 8.1777 28.2881 0.0000 -0.0000 0.2414 -11.9460 0.6534 -2.7394 0.0000 -0.0000 -18.1644 -26.5260 0.1406 25.7623 -0.0000 0.0000
 19.0261 35.3692 -21.5542 173.3291 -1.9234 177.7550 -17.3994 -4.4042 1.1839 10.6458 0.7834 0.4579 -17.6250 17.0274 -0.9428 34.5288 -9.9478 -68.8090 1.4260 0.0000 17.3631 1.5990 4.4214 -19.9057 33.1476 -0.0000 26.2537 19.3463 -13.6330 10.5498 4.3971 20.9392 64.9795 9.7968 -0.0000 30.7087 -2.0529 4.9839 22.4210 32.8623 0.0000 -24.3270 1.4514 8.9405 3.3588 -6.2273 0.0000 0.0000 -20.6004 28.8430 8.1907 28.3729 0.0000 -0.0000 0.3107 -12.1054 0.6567 -2.7481 0.0000 0.0000 -18.1792 -26.5166 0.1041 25.7608 -0.0000 -0.0000
 19.0282 35.3699 -21.5434 173.3886 -2.0557 177.7751 -17.3883 -4.5309 1.1008 10.7357 0.8331 0.5390 -18.0169 16.7175 -1.0250 34.1903 -9.8456 -67.9080 1.4625 0.0000 17.6941 1.5548 4.3950 -19.5041 33.1476 -0.0000 26.2537 18.9177 -13.3411 10.5817 4.0781 20.6078 64.1275 9.7337 -0.0000 30.8674 -1.9983 4.8547 22.4054 32.8623 0.0000 -24.3270 1.4456 8.7996 3.3544 -6.1484 -0.0000 -0.0000 -20.5951 28.8502 8.1691 28.3060 -0.0000 -0.0000 0.3697 -12.2180 0.6422 -2.7518 -0.0000 -0.0000 -18.1955 -26.5145 0.0536 25.9504 -0.0000 -0.0000
 19.0154 35.3692 -21.5235 173.5226 -1.9165 177.7771 -17.2277 -4.3866 1.1960 10.7408 0.8597 0.5336 -18.4182 16.4130 -1.1810 33.7666 -9.8689 -67.0198 1.5795 0.0000 17.8269 1.4904 4.3758 -18.8301 33.1476 -0.0000 26.2537 18.6910 -13.1014 10.5823 3.5437 20.5617 63.2556 9.7216 -0.0000 30.7192 -1.8351 4.5586 21.9558 32.8623 0.0000 -24.3270 1.5570 8.9878 3.3288 -6.1440 -0.0000 -0.0000 -20.6286 28.7811 8.2238 28.3510 -0.0000 0.0000 0.3840 -11.9682 0.6055 -2.6291 0.0000 0.0000 -18.2154 -26.6269 0.0539 25.6306 -0.0000 0.0000
 19.0108 35.3699 -21.5059 173.6543 -1.9216 177.7825 -17.1061 -4.3822 1.2235 10.8600 0.9044 0.5016 -18.6576 16.1109 -1.3380 33.1227 -9.7456 -66.1154 1.6463 0.0000 18.0742 1.4592 4.3810 -18.4416 33.1476 -0.0000 26.2537 18.3706 -12.8269 10.5419 2.8579 20.1710 62.5167 9.5664 -0.0000 31.1145 -1.7514 4.4029 21.7172 32.8623 0.0000 -24.3270 1.6547 8.9860 3.3212 -6.1318 -0.0000 -0.0000 -20.6289 28.7700 8.2457 28.3424 0.0000 -0.0000 0.4572 -11.9101 0.5880 -2.5819 -0.0000 -0.0000 -18.2170 -26.6470 0.0263 25.6098 0.0000 0.0000
 19.0078 35.3700 -21.4892 173.7771 -1.9923 177.7846 -16.9787 -4.4412 1.2244 10.9067 0.9241 0.5147 -18.8673 15.8950 -1.3874 32.3029 -9.6830 -65.2310 1.7493 0.0000 18.1950 1.4247 4.3828 -18.0273 33.1476 -0.0000 26.2537 17.9481 -12.5925 10.4472 2.1670 19.7430 61.8380 9.3583 -0.0000 31.3555 -1.6927 4.3152 21.4422 32.8623 0.0000 -24.3270 1.7271 8.9369 3.3223 -6.0980 -0.0000 0.0000 -20.6398 28.7291 8.2777 28.3785 -0.0000 0.0000 0.5497 -11.9506 0.5808 -2.5592 -0.0000 -0.0000 -18.2178 -26.6514 0.0100 25.5968 -0.0000 0.0000
 19.0057 35.3708 -21.4679 173.9040 -2.0972 177.7912 -16.8217 -4.5126 1.2069 10.9504 0.9524 0.5490 -19.1991 15.6606 -1.3865 31.4809 -9.4453 -64.3654 1.7983 0.0000 18.4466 1.4274 4.4673 -17.7402 33.1476 -0.0000 26.2537 17.5085 -12.4301 10.3546 1.4310 19.4026 61.1735 9.1719 -0.0000 31.7924 -1.5738 4.0469 21.2711 32.8623 0.0000 -24.3270 1.7775 8.8151 3.3260 -6.0293 0.0000 0.0000 -20.6691 28.7336 8.3273 28.3990 -0.0000 -0.0000 0.6459 -12.0097 0.5741 -2.5352 -0.0000 -0.0000 -18.2406 -26.6999 -0.0591 25.5752 0.0000 -0.0000
 19.0067 35.3721 -21.4543 174.0375 -2.1111 177.7660 -16.6977 -4.4493 1.2569 11.0612 0.8376 0.5684 -19.5557 15.3913 -1.3272 30.6240 -9.1418 -63.5387 1.8075 0.0000 18.5733 1.4535 4.6207 -17.4829 33.1476 -0.0000 26.2537 17.0275 -12.3594 10.1985 0.4775 18.7187 60.6563 8.9124 -0.0000 32.4355 -1.5102 3.9247 21.0664 32.8623 0.0000 -24.3270 1.8871 8.8137 3.3596 -6.0408 0.0000 0.0000 -20.6566 28.7126 8.3600 28.3982 -0.0000 0.0000 0.7473 -11.8642 0.5984 -2.5000 0.0000 0.0000 -18.2818 -26.8069 -0.1780 25.7111 -0.0000 0.0000
